<?xml version="1.0" encoding="UTF-8" standalone="no"?>
<!-- Created with Inkscape (http://www.inkscape.org/) -->

<svg
   xmlns:dc="http://purl.org/dc/elements/1.1/"
   xmlns:cc="http://creativecommons.org/ns#"
   xmlns:rdf="http://www.w3.org/1999/02/22-rdf-syntax-ns#"
   xmlns:svg="http://www.w3.org/2000/svg"
   xmlns="http://www.w3.org/2000/svg"
   xmlns:sodipodi="http://sodipodi.sourceforge.net/DTD/sodipodi-0.dtd"
   xmlns:inkscape="http://www.inkscape.org/namespaces/inkscape"
   width="744.09448819"
   height="1052.3622047"
   id="svg2"
   version="1.1"
   inkscape:version="0.48.5 r10040"
   sodipodi:docname="New document 1">
  <defs
     id="defs4" />
  <sodipodi:namedview
     id="base"
     pagecolor="#ffffff"
     bordercolor="#666666"
     borderopacity="1.0"
     inkscape:pageopacity="0.0"
     inkscape:pageshadow="2"
     inkscape:zoom="3.959798"
     inkscape:cx="13.443509"
     inkscape:cy="406.81772"
     inkscape:document-units="px"
     inkscape:current-layer="layer1"
     showgrid="false"
     inkscape:window-width="1384"
     inkscape:window-height="856"
     inkscape:window-x="56"
     inkscape:window-y="0"
     inkscape:window-maximized="0" />
  <metadata
     id="metadata7">
    <rdf:RDF>
      <cc:Work
         rdf:about="">
        <dc:format>image/svg+xml</dc:format>
        <dc:type
           rdf:resource="http://purl.org/dc/dcmitype/StillImage" />
        <dc:title></dc:title>
      </cc:Work>
    </rdf:RDF>
  </metadata>
  <g
     inkscape:label="Layer 1"
     inkscape:groupmode="layer"
     id="layer1">
    <path
       style="fill:#333333;fill-rule:evenodd;stroke:#ffffff;stroke-width:2;stroke-miterlimit:4;stroke-opacity:1;stroke-dasharray:none"
       d="m 28.5625,582.875 c -0.651972,0.0652 -1.273025,0.39877 -1.6875,0.90625 l -17.4003814,16.9586 6.4003814,4.19765 -0.302824,1.79061 -2.703998,19.592 8.756822,-0.53886 1,-21.21875 4.6875,-0.6875 c -0.770501,1.66471 -1.15625,3.41496 -1.15625,5.21875 0,1.367 0.237925,2.70884 0.6875,4 l -2.5,0.9375 c -1.087716,0.40271 -1.796262,1.63919 -1.59375,2.78125 l 0.08693,22.24239 5.881822,0.41386 -0.46875,9.8125 9.293148,-0.76015 -3.29315,-20.2086 10.15625,-1.46875 c 5.07034,1.61134 10.886533,2.53125 17.09375,2.53125 5.113867,0 9.98619,-0.62959 14.375,-1.75 l 13.46875,1.9375 -1.77792,20.46114 7.77792,0.53886 L 94.25,627.25 c -0.06132,-1.14923 -1.016103,-2.18704 -2.15625,-2.34375 l -6.5625,-0.9375 c 3.086634,-1.64047 5.651119,-3.60407 7.5625,-5.78125 L 96.875,618.75 97.6875,640 106.69686,638.54981 101.78125,616.5 c -0.0448,-1.15092 -0.98612,-2.203 -2.125,-2.375 L 96,613.5625 c 0.563708,-1.43773 0.875,-2.93339 0.875,-4.46875 0,-1.42323 -0.263658,-2.81578 -0.75,-4.15625 l 2.84375,-0.25 5.78125,20.4375 7.59042,-3.64784 -9.12167,-20.16466 c -0.31278,-1.10989 -1.47629,-1.91327 -2.625,-1.8125 l -7.375,0.625 c -1.679324,-1.94824 -3.900545,-3.71761 -6.53125,-5.25 l 6.71875,-5 16.41386,13.36485 4.6377,-6.71796 L 95.25,584.8125 c -0.49313,-0.45397 -1.174692,-0.69656 -1.84375,-0.65625 -0.480505,0.0226 -0.953431,0.1876 -1.34375,0.46875 l -10.46875,7.78125 C 75.889027,590.14348 68.96095,588.8125 61.5,588.8125 c -6.09074,0 -11.80933,0.88203 -16.8125,2.4375 l -14.65625,-8.0625 c -0.442536,-0.25024 -0.962672,-0.36091 -1.46875,-0.3125 z m 0.875,5.6875 9.21875,5.0625 c -2.701563,1.31543 -5.056324,2.87308 -6.96875,4.59375 l -10.993655,1.40371 z m -0.09375,28.96875 c 1.622145,2.0311 3.827746,3.86494 6.46875,5.46875 L 31.5,623.625 c -1.072949,0.15384 -1.98684,1.08117 -2.125,2.15625 L 28.03125,618 z"
       id="path2985"
       inkscape:export-filename="/Users/tomm/node-webkit-v0.10.2-osx-x64/img/spider1.png"
       inkscape:export-xdpi="88.339996"
       inkscape:export-ydpi="88.339996"
       inkscape:connector-curvature="0"
       sodipodi:nodetypes="cccccccccscccccccccsccccccccccccccscccccccccccccccscccccccccccccc" />
    <path
       style="fill:#ffffff;fill-opacity:1;stroke:none"
       d="m 51.928664,614.4077 c -0.903642,0.36075 -1.553135,0.85559 -1.877395,1.44478 -1.07888,1.96039 2.00598,4.35354 6.902188,5.34373 4.296423,0.86889 8.535611,0.3516 10.242847,-1.10833 z"
       id="path3791"
       inkscape:export-filename="/Users/tomm/node-webkit-v0.10.2-osx-x64/img/spider1.png"
       inkscape:export-xdpi="88.339996"
       inkscape:export-ydpi="88.339996"
       inkscape:connector-curvature="0"
       sodipodi:nodetypes="csscc" />
    <path
       id="path3802"
       d="m 89.869302,613.76794 c 0.903642,0.36075 1.553135,0.85559 1.877395,1.44478 1.07888,1.96039 -2.00598,4.35354 -6.902188,5.34373 -4.296423,0.86889 -8.535611,0.3516 -10.242847,-1.10833 z"
       style="fill:#ffffff;fill-opacity:1;stroke:none"
       inkscape:connector-curvature="0"
       inkscape:export-filename="/Users/tomm/node-webkit-v0.10.2-osx-x64/img/spider1.png"
       inkscape:export-xdpi="88.339996"
       inkscape:export-ydpi="88.339996"
       sodipodi:nodetypes="csscc" />
    <rect
       style="fill:#333333;fill-opacity:1;stroke:#ffffff;stroke-width:2;stroke-linecap:butt;stroke-linejoin:round;stroke-miterlimit:4;stroke-opacity:1;stroke-dasharray:none;opacity:0"
       id="rect3823"
       width="108.5914"
       height="71.468292"
       x="8.3337584"
       y="581.37854"
       inkscape:export-filename="/Users/tomm/node-webkit-v0.10.2-osx-x64/img/spider1.png"
       inkscape:export-xdpi="88.339996"
       inkscape:export-ydpi="88.339996" />
    <path
       sodipodi:nodetypes="cccccccccscccccccccsccccccccccccccscccccccccccccccscccccccccccccc"
       inkscape:connector-curvature="0"
       inkscape:export-ydpi="88.339996"
       inkscape:export-xdpi="88.339996"
       inkscape:export-filename="/Users/tomm/node-webkit-v0.10.2-osx-x64/img/spider2.png"
       id="path3833"
       d="m 27.682334,688.13498 c -0.651972,0.0652 -1.273025,0.39877 -1.6875,0.90625 l -21.6935301,6.35199 8.4206861,4.19765 -1.565514,5.57869 -8.5123754,16.81408 9.0093604,1.48144 5.545686,-19.45098 7.970496,0.57519 c -0.770501,1.66471 -1.15625,3.41496 -1.15625,5.21875 0,1.367 0.237925,2.70884 0.6875,4 l -2.5,0.9375 c -1.087716,0.40271 -1.796262,1.63919 -1.59375,2.78125 l -14.3077438,19.46447 10.1749708,2.18163 -4.761899,8.04473 9.293148,-0.76015 11.101524,-17.43068 10.15625,-1.46875 c 5.07034,1.61134 10.886533,2.53125 17.09375,2.53125 5.113867,0 9.98619,-0.62959 14.375,-1.75 l 13.46875,1.9375 10.091372,16.16799 7.777925,0.53886 -12.963047,-19.01935 c -0.06132,-1.14923 -1.016103,-2.18704 -2.15625,-2.34375 l -6.5625,-0.9375 c 3.086634,-1.64047 5.651119,-3.60407 7.5625,-5.78125 l 3.78125,0.5625 9.651337,14.93655 9.00935,-1.45019 -13.754437,-15.73636 c -0.0448,-1.15092 -0.98612,-2.203 -2.125,-2.375 l -3.65625,-0.5625 c 0.563708,-1.43773 0.875,-2.93339 0.875,-4.46875 0,-1.42323 -0.263658,-2.81578 -0.75,-4.15625 l 2.84375,-0.25 14.620077,7.30552 7.59042,-3.64784 -17.9605,-7.03268 c -0.31278,-1.10989 -1.476287,-1.91327 -2.624997,-1.8125 l -7.375,0.625 c -1.679324,-1.94824 -3.900545,-3.71761 -6.53125,-5.25 l 7.223826,-4.49492 21.717161,-0.52475 0.84963,-6.21288 -20.723041,1.67513 c -0.49313,-0.45397 -1.174692,-0.69656 -1.84375,-0.65625 -0.480505,0.0226 -0.953431,0.1876 -1.34375,0.46875 l -10.973826,7.27617 c -5.704723,-2.26277 -12.6328,-3.59375 -20.09375,-3.59375 -6.09074,0 -10.294101,-0.6332 -15.297271,0.92227 l -14.908788,-2.00158 c -0.442536,-0.25024 -0.962672,-0.36091 -1.46875,-0.3125 z m 0.875,5.6875 7.956059,0.51681 c -2.701563,1.31543 -5.056324,2.87308 -6.96875,4.59375 l -13.266498,-0.86913 z m -1.356441,24.42306 c 1.622145,2.0311 3.827746,3.86494 6.46875,5.46875 l -4.3125,0.625 c -1.072949,0.15384 -11.835827,12.19285 -11.973987,13.26793 l 8.505237,-18.89293 z"
       style="fill:#333333;fill-rule:evenodd;stroke:#ffffff;stroke-width:2;stroke-miterlimit:4;stroke-opacity:1;stroke-dasharray:none" />
    <path
       sodipodi:nodetypes="csscc"
       inkscape:connector-curvature="0"
       inkscape:export-ydpi="88.339996"
       inkscape:export-xdpi="88.339996"
       inkscape:export-filename="/Users/tomm/node-webkit-v0.10.2-osx-x64/img/spider2.png"
       id="path3835"
       d="m 49.785807,715.12199 c -0.903642,0.36075 -1.553135,0.85559 -1.877395,1.44478 -1.07888,1.96039 2.00598,4.35354 6.902188,5.34373 4.296423,0.86889 8.535611,0.3516 10.242847,-1.10833 z"
       style="fill:#ffffff;fill-opacity:1;stroke:none" />
    <path
       sodipodi:nodetypes="csscc"
       inkscape:export-ydpi="88.339996"
       inkscape:export-xdpi="88.339996"
       inkscape:export-filename="/Users/tomm/node-webkit-v0.10.2-osx-x64/img/spider2.png"
       inkscape:connector-curvature="0"
       style="fill:#ffffff;fill-opacity:1;stroke:none"
       d="m 87.726445,714.48223 c 0.903642,0.36075 1.553135,0.85559 1.877395,1.44478 1.07888,1.96039 -2.00598,4.35354 -6.902188,5.34373 -4.296423,0.86889 -8.535611,0.3516 -10.242847,-1.10833 z"
       id="path3837" />
    <rect
       inkscape:export-ydpi="88.339996"
       inkscape:export-xdpi="88.339996"
       inkscape:export-filename="/Users/tomm/node-webkit-v0.10.2-osx-x64/img/spider2.png"
       y="682.09283"
       x="6.1909013"
       height="71.468292"
       width="108.5914"
       id="rect3839"
       style="opacity:0;fill:#333333;fill-opacity:1;stroke:#ffffff;stroke-width:2;stroke-linecap:butt;stroke-linejoin:round;stroke-miterlimit:4;stroke-opacity:1;stroke-dasharray:none" />
  </g>
</svg>
